<svg width="1200" height="630" viewBox="0 0 1200 630" xmlns="http://www.w3.org/2000/svg" role="img">
  <title>TradeSim — Realistic Market Data for Trading UIs</title>
  <desc>OG banner for tradesim.dev</desc>

  <defs>
    <pattern id="grid" width="40" height="40" patternUnits="userSpaceOnUse">
      <path d="M 40 0 L 0 0 0 40" fill="none" stroke="#00d4aa" stroke-width="0.4" opacity="0.12"/>
    </pattern>
  </defs>

  <rect width="1200" height="630" fill="#040608"/>
  <rect width="1200" height="630" fill="url(#grid)"/>
  <ellipse cx="600" cy="200" rx="500" ry="200" fill="#00d4aa" fill-opacity="0.05"/>
  <ellipse cx="200" cy="400" rx="300" ry="200" fill="#0098ff" fill-opacity="0.04"/>
  <rect x="0" y="0" width="4" height="630" fill="#00d4aa"/>
  <rect x="0" y="0" width="1200" height="630" fill="none" stroke="#1a1f2a" stroke-width="1"/>

  <!-- Badge -->
  <rect x="60" y="38" width="120" height="26" rx="13" fill="#00d4aa" fill-opacity="0.1" stroke="#00d4aa" stroke-opacity="0.3" stroke-width="1"/>
  <circle cx="82" cy="51" r="4" fill="#00d4aa"/>
  <text x="94" y="56" font-family="Courier New, monospace" font-size="11" fill="#00d4aa" letter-spacing="1">v2.0.0</text>
  <rect x="196" y="38" width="140" height="26" rx="13" fill="#1a1f2a" stroke="#2a2f3a" stroke-width="1"/>
  <text x="266" y="56" font-family="Courier New, monospace" font-size="11" fill="#5a6478" text-anchor="middle" letter-spacing="1">0 DEPENDENCIES</text>

  <!-- Headline -->
  <text x="60" y="180" font-family="Arial Black, Arial, sans-serif" font-size="74" font-weight="900" fill="#e8edf5" letter-spacing="-2">Realistic</text>
  <text x="60" y="265" font-family="Arial Black, Arial, sans-serif" font-size="74" font-weight="900" fill="#00d4aa" letter-spacing="-2">market data</text>
  <text x="60" y="350" font-family="Arial Black, Arial, sans-serif" font-size="74" font-weight="900" fill="#e8edf5" letter-spacing="-2">for trading UIs</text>

  <text x="60" y="410" font-family="Arial, sans-serif" font-size="20" fill="#5a6478">Generate price ticks, order book depth and OHLCV candles.</text>
  <text x="60" y="438" font-family="Arial, sans-serif" font-size="20" fill="#5a6478">Equity · Forex · Crypto · No API keys · No rate limits.</text>

  <!-- Install -->
  <rect x="60" y="468" width="500" height="56" rx="8" fill="#0c0f14" stroke="#1a1f2a" stroke-width="1"/>
  <text x="86" y="502" font-family="Courier New, monospace" font-size="18" fill="#00d4aa">$</text>
  <text x="110" y="502" font-family="Courier New, monospace" font-size="18" fill="#e8edf5">npm install trade-data-generator</text>

  <!-- Pills -->
  <rect x="60" y="548" width="120" height="28" rx="14" fill="#00d4aa" fill-opacity="0.1" stroke="#00d4aa" stroke-opacity="0.3" stroke-width="1"/>
  <text x="120" y="566" font-family="Courier New, monospace" font-size="11" fill="#00d4aa" text-anchor="middle">Zero deps</text>
  <rect x="192" y="548" width="140" height="28" rx="14" fill="#0098ff" fill-opacity="0.1" stroke="#0098ff" stroke-opacity="0.3" stroke-width="1"/>
  <text x="262" y="566" font-family="Courier New, monospace" font-size="11" fill="#0098ff" text-anchor="middle">TypeScript ready</text>
  <rect x="344" y="548" width="120" height="28" rx="14" fill="#00d4aa" fill-opacity="0.08" stroke="#00d4aa" stroke-opacity="0.2" stroke-width="1"/>
  <text x="404" y="566" font-family="Courier New, monospace" font-size="11" fill="#00d4aa" text-anchor="middle">MIT License</text>
  <rect x="476" y="548" width="120" height="28" rx="14" fill="#1a1f2a" stroke="#2a2f3a" stroke-width="1"/>
  <text x="536" y="566" font-family="Courier New, monospace" font-size="11" fill="#5a6478" text-anchor="middle">Node.js 14+</text>

  <!-- Chart window -->
  <rect x="680" y="60" width="480" height="510" rx="12" fill="#0c0f14" stroke="#1a1f2a" stroke-width="1"/>
  <rect x="680" y="60" width="480" height="40" rx="12" fill="#0c0f14"/>
  <rect x="680" y="88" width="480" height="12" fill="#0c0f14"/>
  <circle cx="704" cy="80" r="6" fill="#ff5f57"/>
  <circle cx="724" cy="80" r="6" fill="#febc2e"/>
  <circle cx="744" cy="80" r="6" fill="#28c840"/>
  <text x="920" y="85" font-family="Courier New, monospace" font-size="11" fill="#2a2f3a" text-anchor="middle">BTC/USDT · 1m · LIVE</text>

  <text x="700" y="130" font-family="Courier New, monospace" font-size="10" fill="#5a6478">LAST PRICE</text>
  <text x="700" y="158" font-family="Arial Black, Arial, sans-serif" font-size="30" font-weight="900" fill="#e8edf5">45,016.14</text>
  <rect x="850" y="138" width="76" height="24" rx="4" fill="#00d4aa" fill-opacity="0.12"/>
  <text x="888" y="155" font-family="Courier New, monospace" font-size="12" fill="#00d4aa" text-anchor="middle">+0.04%</text>

  <rect x="692" y="170" width="456" height="220" rx="4" fill="#040608" fill-opacity="0.6"/>
  <line x1="692" y1="212" x2="1148" y2="212" stroke="#1a1f2a" stroke-width="0.5"/>
  <line x1="692" y1="254" x2="1148" y2="254" stroke="#1a1f2a" stroke-width="0.5"/>
  <line x1="692" y1="296" x2="1148" y2="296" stroke="#1a1f2a" stroke-width="0.5"/>
  <line x1="692" y1="338" x2="1148" y2="338" stroke="#1a1f2a" stroke-width="0.5"/>

  <line x1="720" y1="230" x2="720" y2="295" stroke="#00d4aa" stroke-width="1.5"/>
  <rect x="712" y="244" width="16" height="34" rx="1" fill="#00d4aa"/>
  <line x1="752" y1="218" x2="752" y2="280" stroke="#00d4aa" stroke-width="1.5"/>
  <rect x="744" y="230" width="16" height="30" rx="1" fill="#00d4aa"/>
  <line x1="784" y1="225" x2="784" y2="285" stroke="#f6465d" stroke-width="1.5"/>
  <rect x="776" y="238" width="16" height="30" rx="1" fill="#f6465d"/>
  <line x1="816" y1="220" x2="816" y2="275" stroke="#f6465d" stroke-width="1.5"/>
  <rect x="808" y="232" width="16" height="28" rx="1" fill="#f6465d"/>
  <line x1="848" y1="210" x2="848" y2="265" stroke="#00d4aa" stroke-width="1.5"/>
  <rect x="840" y="220" width="16" height="28" rx="1" fill="#00d4aa"/>
  <line x1="880" y1="200" x2="880" y2="252" stroke="#00d4aa" stroke-width="1.5"/>
  <rect x="872" y="210" width="16" height="26" rx="1" fill="#00d4aa"/>
  <line x1="912" y1="205" x2="912" y2="255" stroke="#f6465d" stroke-width="1.5"/>
  <rect x="904" y="215" width="16" height="26" rx="1" fill="#f6465d"/>
  <line x1="944" y1="196" x2="944" y2="244" stroke="#00d4aa" stroke-width="1.5"/>
  <rect x="936" y="205" width="16" height="24" rx="1" fill="#00d4aa"/>
  <line x1="976" y1="188" x2="976" y2="234" stroke="#00d4aa" stroke-width="1.5"/>
  <rect x="968" y="197" width="16" height="22" rx="1" fill="#00d4aa"/>
  <line x1="1008" y1="192" x2="1008" y2="238" stroke="#f6465d" stroke-width="1.5"/>
  <rect x="1000" y="202" width="16" height="22" rx="1" fill="#f6465d"/>
  <line x1="1040" y1="182" x2="1040" y2="226" stroke="#00d4aa" stroke-width="1.5"/>
  <rect x="1032" y="191" width="16" height="20" rx="1" fill="#00d4aa"/>
  <line x1="1072" y1="176" x2="1072" y2="218" stroke="#00d4aa" stroke-width="1.5"/>
  <rect x="1064" y="185" width="16" height="18" rx="1" fill="#00d4aa" opacity="0.8"/>
  <line x1="1104" y1="180" x2="1104" y2="210" stroke="#00d4aa" stroke-width="1.5"/>
  <rect x="1096" y="186" width="16" height="14" rx="1" fill="#00d4aa" opacity="0.5"/>

  <!-- Order book -->
  <rect x="692" y="402" width="456" height="152" rx="4" fill="#040608" fill-opacity="0.6"/>
  <text x="704" y="422" font-family="Courier New, monospace" font-size="10" fill="#5a6478" letter-spacing="2">ORDER BOOK</text>
  <rect x="692" y="428" width="220" height="16" rx="2" fill="#f6465d" fill-opacity="0.08"/>
  <text x="704" y="440" font-family="Courier New, monospace" font-size="11" fill="#f6465d">45,038.65</text>
  <text x="1144" y="440" font-family="Courier New, monospace" font-size="11" fill="#5a6478" text-anchor="end">1,243</text>
  <rect x="692" y="446" width="180" height="16" rx="2" fill="#f6465d" fill-opacity="0.05"/>
  <text x="704" y="458" font-family="Courier New, monospace" font-size="11" fill="#f6465d">45,039.12</text>
  <text x="1144" y="458" font-family="Courier New, monospace" font-size="11" fill="#5a6478" text-anchor="end">892</text>
  <line x1="692" y1="468" x2="1148" y2="468" stroke="#1a1f2a" stroke-width="0.5"/>
  <text x="920" y="482" font-family="Courier New, monospace" font-size="12" fill="#e8edf5" text-anchor="middle">45,016.14  ▲ 0.04%</text>
  <line x1="692" y1="488" x2="1148" y2="488" stroke="#1a1f2a" stroke-width="0.5"/>
  <rect x="692" y="492" width="240" height="16" rx="2" fill="#00d4aa" fill-opacity="0.06"/>
  <text x="704" y="504" font-family="Courier New, monospace" font-size="11" fill="#00d4aa">44,993.63</text>
  <text x="1144" y="504" font-family="Courier New, monospace" font-size="11" fill="#5a6478" text-anchor="end">2,104</text>
  <rect x="692" y="510" width="200" height="16" rx="2" fill="#00d4aa" fill-opacity="0.04"/>
  <text x="704" y="522" font-family="Courier New, monospace" font-size="11" fill="#00d4aa">44,992.10</text>
  <text x="1144" y="522" font-family="Courier New, monospace" font-size="11" fill="#5a6478" text-anchor="end">1,567</text>
  <rect x="692" y="528" width="160" height="16" rx="2" fill="#00d4aa" fill-opacity="0.03"/>
  <text x="704" y="540" font-family="Courier New, monospace" font-size="11" fill="#00d4aa">44,990.50</text>
  <text x="1144" y="540" font-family="Courier New, monospace" font-size="11" fill="#5a6478" text-anchor="end">998</text>

  <text x="60" y="610" font-family="Courier New, monospace" font-size="14" fill="#2a2f3a">tradesim.dev</text>
  <text x="1140" y="610" font-family="Courier New, monospace" font-size="14" fill="#2a2f3a" text-anchor="end">trade-data-generator</text>
</svg>
